<?xml version="1.0" encoding="UTF-8" standalone="no"?>
<!DOCTYPE svg PUBLIC "-//W3C//DTD SVG 1.1//EN" "http://www.w3.org/Graphics/SVG/1.1/DTD/svg11.dtd">
<svg class="railroad-diagram" width="594" height="594" viewBox="0 0 594 594" id="expr" xmlns="http://www.w3.org/2000/svg" xmlns:xlink="http://www.w3.org/1999/xlink"><g transform="translate(.5 .5)"><g><path d="M20 21v20m0 -10h20"></path></g><g><path d="M40 31h0"></path><path d="M554 31h0"></path><path d="M40 31h20"></path><g><path d="M60 31h191.5"></path><g><path d="M251.5 31h10"></path><path d="M332.5 31h10"></path><g class="terminal "><path d="M261.5 31h0"></path><path d="M332.5 31h0"></path><rect x="261.5" y="20" width="71" height="22"></rect><text x="297" y="35">'TIME'</text></g></g><path d="M342.5 31h191.5"></path></g><path d="M534 31h20"></path><path d="M40 31a10 10 0 0 1 10 10v18a10 10 0 0 0 10 10"></path><g><path d="M60 69h93.25"></path><g><path d="M153.25 69h10"></path><path d="M430.75 69h10"></path><g class="terminal "><path d="M163.25 69h0"></path><path d="M225.75 69h0"></path><rect x="163.25" y="58" width="62.5" height="22"></rect><text x="194.5" y="73">'ABS'</text></g><path d="M225.75 69h10"></path><path d="M235.75 69h10"></path><g class="terminal "><path d="M245.75 69h0"></path><path d="M291.25 69h0"></path><rect x="245.75" y="58" width="45.5" height="22"></rect><text x="268.5" y="73">'('</text></g><path d="M291.25 69h10"></path><path d="M301.25 69h10"></path><g class="non-terminal "><path d="M311.25 69h0"></path><path d="M365.25 69h0"></path><rect x="311.25" y="58" width="54" height="22" rx="10" ry="10"></rect><text x="338.25" y="73">expr</text></g><path d="M365.25 69h10"></path><path d="M375.25 69h10"></path><g class="terminal "><path d="M385.25 69h0"></path><path d="M430.75 69h0"></path><rect x="385.25" y="58" width="45.5" height="22"></rect><text x="408" y="73">')'</text></g></g><path d="M440.75 69h93.25"></path></g><path d="M534 69a10 10 0 0 0 10 -10v-18a10 10 0 0 1 10 -10"></path><path d="M40 31a10 10 0 0 1 10 10v56a10 10 0 0 0 10 10"></path><g><path d="M60 107h134.5"></path><g><path d="M194.5 107h10"></path><path d="M389.5 107h10"></path><g class="terminal "><path d="M204.5 107h0"></path><path d="M250 107h0"></path><rect x="204.5" y="96" width="45.5" height="22"></rect><text x="227.25" y="111">'('</text></g><path d="M250 107h10"></path><path d="M260 107h10"></path><g class="non-terminal "><path d="M270 107h0"></path><path d="M324 107h0"></path><rect x="270" y="96" width="54" height="22" rx="10" ry="10"></rect><text x="297" y="111">expr</text></g><path d="M324 107h10"></path><path d="M334 107h10"></path><g class="terminal "><path d="M344 107h0"></path><path d="M389.5 107h0"></path><rect x="344" y="96" width="45.5" height="22"></rect><text x="366.75" y="111">')'</text></g></g><path d="M399.5 107h134.5"></path></g><path d="M534 107a10 10 0 0 0 10 -10v-56a10 10 0 0 1 10 -10"></path><path d="M40 31a10 10 0 0 1 10 10v94a10 10 0 0 0 10 10"></path><g><path d="M60 145h191.5"></path><g><path d="M251.5 145h10"></path><path d="M332.5 145h10"></path><g class="terminal "><path d="M261.5 145h0"></path><path d="M332.5 145h0"></path><rect x="261.5" y="134" width="71" height="22"></rect><text x="297" y="149">NUMBER</text></g></g><path d="M342.5 145h191.5"></path></g><path d="M534 145a10 10 0 0 0 10 -10v-94a10 10 0 0 1 10 -10"></path><path d="M40 31a10 10 0 0 1 10 10v132a10 10 0 0 0 10 10"></path><g><path d="M60 183h208.5"></path><g><path d="M268.5 183h10"></path><path d="M315.5 183h10"></path><g class="terminal "><path d="M278.5 183h0"></path><path d="M315.5 183h0"></path><rect x="278.5" y="172" width="37" height="22"></rect><text x="297" y="187">ID</text></g></g><path d="M325.5 183h208.5"></path></g><path d="M534 183a10 10 0 0 0 10 -10v-132a10 10 0 0 1 10 -10"></path><path d="M40 31a10 10 0 0 1 10 10v170a10 10 0 0 0 10 10"></path><g><path d="M60 221h110.25"></path><g><path d="M170.25 221h10"></path><path d="M413.75 221h10"></path><g class="non-terminal "><path d="M180.25 221h0"></path><path d="M234.25 221h0"></path><rect x="180.25" y="210" width="54" height="22" rx="10" ry="10"></rect><text x="207.25" y="225">expr</text></g><path d="M234.25 221h10"></path><g><path d="M244.25 221h0"></path><path d="M349.75 221h0"></path><path d="M244.25 221h20"></path><g><path d="M264.25 221h0"></path><g><path d="M264.25 221h10"></path><path d="M319.75 221h10"></path><g class="terminal "><path d="M274.25 221h0"></path><path d="M319.75 221h0"></path><rect x="274.25" y="210" width="45.5" height="22"></rect><text x="297" y="225">'*'</text></g></g><path d="M329.75 221h0"></path></g><path d="M329.75 221h20"></path><path d="M244.25 221a10 10 0 0 1 10 10v18a10 10 0 0 0 10 10"></path><g><path d="M264.25 259h0"></path><g><path d="M264.25 259h10"></path><path d="M319.75 259h10"></path><g class="terminal "><path d="M274.25 259h0"></path><path d="M319.75 259h0"></path><rect x="274.25" y="248" width="45.5" height="22"></rect><text x="297" y="263">'/'</text></g></g><path d="M329.75 259h0"></path></g><path d="M329.75 259a10 10 0 0 0 10 -10v-18a10 10 0 0 1 10 -10"></path></g><path d="M349.75 221h10"></path><g class="non-terminal "><path d="M359.75 221h0"></path><path d="M413.75 221h0"></path><rect x="359.75" y="210" width="54" height="22" rx="10" ry="10"></rect><text x="386.75" y="225">expr</text></g></g><path d="M423.75 221h110.25"></path></g><path d="M534 221a10 10 0 0 0 10 -10v-170a10 10 0 0 1 10 -10"></path><path d="M40 31a10 10 0 0 1 10 10v246a10 10 0 0 0 10 10"></path><g><path d="M60 297h110.25"></path><g><path d="M170.25 297h10"></path><path d="M413.75 297h10"></path><g class="non-terminal "><path d="M180.25 297h0"></path><path d="M234.25 297h0"></path><rect x="180.25" y="286" width="54" height="22" rx="10" ry="10"></rect><text x="207.25" y="301">expr</text></g><path d="M234.25 297h10"></path><g><path d="M244.25 297h0"></path><path d="M349.75 297h0"></path><path d="M244.25 297h20"></path><g><path d="M264.25 297h0"></path><g><path d="M264.25 297h10"></path><path d="M319.75 297h10"></path><g class="terminal "><path d="M274.25 297h0"></path><path d="M319.75 297h0"></path><rect x="274.25" y="286" width="45.5" height="22"></rect><text x="297" y="301">'+'</text></g></g><path d="M329.75 297h0"></path></g><path d="M329.75 297h20"></path><path d="M244.25 297a10 10 0 0 1 10 10v18a10 10 0 0 0 10 10"></path><g><path d="M264.25 335h0"></path><g><path d="M264.25 335h10"></path><path d="M319.75 335h10"></path><g class="terminal "><path d="M274.25 335h0"></path><path d="M319.75 335h0"></path><rect x="274.25" y="324" width="45.5" height="22"></rect><text x="297" y="339">'-'</text></g></g><path d="M329.75 335h0"></path></g><path d="M329.75 335a10 10 0 0 0 10 -10v-18a10 10 0 0 1 10 -10"></path></g><path d="M349.75 297h10"></path><g class="non-terminal "><path d="M359.75 297h0"></path><path d="M413.75 297h0"></path><rect x="359.75" y="286" width="54" height="22" rx="10" ry="10"></rect><text x="386.75" y="301">expr</text></g></g><path d="M423.75 297h110.25"></path></g><path d="M534 297a10 10 0 0 0 10 -10v-246a10 10 0 0 1 10 -10"></path><path d="M40 31a10 10 0 0 1 10 10v322a10 10 0 0 0 10 10"></path><g><path d="M60 373h106"></path><g><path d="M166 373h10"></path><path d="M418 373h10"></path><g class="non-terminal "><path d="M176 373h0"></path><path d="M230 373h0"></path><rect x="176" y="362" width="54" height="22" rx="10" ry="10"></rect><text x="203" y="377">expr</text></g><path d="M230 373h10"></path><g><path d="M240 373h0"></path><path d="M354 373h0"></path><path d="M240 373h20"></path><g><path d="M260 373h4.25"></path><g><path d="M264.25 373h10"></path><path d="M319.75 373h10"></path><g class="terminal "><path d="M274.25 373h0"></path><path d="M319.75 373h0"></path><rect x="274.25" y="362" width="45.5" height="22"></rect><text x="297" y="377">'&lt;'</text></g></g><path d="M329.75 373h4.25"></path></g><path d="M334 373h20"></path><path d="M240 373a10 10 0 0 1 10 10v18a10 10 0 0 0 10 10"></path><g><path d="M260 411h4.25"></path><g><path d="M264.25 411h10"></path><path d="M319.75 411h10"></path><g class="terminal "><path d="M274.25 411h0"></path><path d="M319.75 411h0"></path><rect x="274.25" y="400" width="45.5" height="22"></rect><text x="297" y="415">'&gt;'</text></g></g><path d="M329.75 411h4.25"></path></g><path d="M334 411a10 10 0 0 0 10 -10v-18a10 10 0 0 1 10 -10"></path><path d="M240 373a10 10 0 0 1 10 10v56a10 10 0 0 0 10 10"></path><g><path d="M260 449h0"></path><g><path d="M260 449h10"></path><path d="M324 449h10"></path><g class="terminal "><path d="M270 449h0"></path><path d="M324 449h0"></path><rect x="270" y="438" width="54" height="22"></rect><text x="297" y="453">'=='</text></g></g><path d="M334 449h0"></path></g><path d="M334 449a10 10 0 0 0 10 -10v-56a10 10 0 0 1 10 -10"></path><path d="M240 373a10 10 0 0 1 10 10v94a10 10 0 0 0 10 10"></path><g><path d="M260 487h0"></path><g><path d="M260 487h10"></path><path d="M324 487h10"></path><g class="terminal "><path d="M270 487h0"></path><path d="M324 487h0"></path><rect x="270" y="476" width="54" height="22"></rect><text x="297" y="491">'!='</text></g></g><path d="M334 487h0"></path></g><path d="M334 487a10 10 0 0 0 10 -10v-94a10 10 0 0 1 10 -10"></path></g><path d="M354 373h10"></path><g class="non-terminal "><path d="M364 373h0"></path><path d="M418 373h0"></path><rect x="364" y="362" width="54" height="22" rx="10" ry="10"></rect><text x="391" y="377">expr</text></g></g><path d="M428 373h106"></path></g><path d="M534 373a10 10 0 0 0 10 -10v-322a10 10 0 0 1 10 -10"></path><path d="M40 31a10 10 0 0 1 10 10v474a10 10 0 0 0 10 10"></path><g><path d="M60 525h0"></path><g><path d="M60 525h10"></path><path d="M524 525h10"></path><g class="comment "><path d="M70 525h0"></path><path d="M171 525h0"></path><text x="120.5" y="530" class="comment">&lt;assoc=right&gt;</text></g><path d="M171 525h10"></path><path d="M181 525h10"></path><g class="non-terminal "><path d="M191 525h0"></path><path d="M245 525h0"></path><rect x="191" y="514" width="54" height="22" rx="10" ry="10"></rect><text x="218" y="529">expr</text></g><path d="M245 525h10"></path><path d="M255 525h10"></path><g class="terminal "><path d="M265 525h0"></path><path d="M310.5 525h0"></path><rect x="265" y="514" width="45.5" height="22"></rect><text x="287.75" y="529">'?'</text></g><path d="M310.5 525h10"></path><path d="M320.5 525h10"></path><g class="non-terminal "><path d="M330.5 525h0"></path><path d="M384.5 525h0"></path><rect x="330.5" y="514" width="54" height="22" rx="10" ry="10"></rect><text x="357.5" y="529">expr</text></g><path d="M384.5 525h10"></path><path d="M394.5 525h10"></path><g class="terminal "><path d="M404.5 525h0"></path><path d="M450 525h0"></path><rect x="404.5" y="514" width="45.5" height="22"></rect><text x="427.25" y="529">':'</text></g><path d="M450 525h10"></path><path d="M460 525h10"></path><g class="non-terminal "><path d="M470 525h0"></path><path d="M524 525h0"></path><rect x="470" y="514" width="54" height="22" rx="10" ry="10"></rect><text x="497" y="529">expr</text></g></g><path d="M534 525h0"></path></g><path d="M534 525a10 10 0 0 0 10 -10v-474a10 10 0 0 1 10 -10"></path><path d="M40 31a10 10 0 0 1 10 10v512a10 10 0 0 0 10 10"></path><g><path d="M60 563h78.25"></path><g><path d="M138.25 563h10"></path><path d="M445.75 563h10"></path><g class="comment "><path d="M148.25 563h0"></path><path d="M249.25 563h0"></path><text x="198.75" y="568" class="comment">&lt;assoc=right&gt;</text></g><path d="M249.25 563h10"></path><path d="M259.25 563h10"></path><g class="terminal "><path d="M269.25 563h0"></path><path d="M306.25 563h0"></path><rect x="269.25" y="552" width="37" height="22"></rect><text x="287.75" y="567">ID</text></g><path d="M306.25 563h10"></path><path d="M316.25 563h10"></path><g class="terminal "><path d="M326.25 563h0"></path><path d="M371.75 563h0"></path><rect x="326.25" y="552" width="45.5" height="22"></rect><text x="349" y="567">'='</text></g><path d="M371.75 563h10"></path><path d="M381.75 563h10"></path><g class="non-terminal "><path d="M391.75 563h0"></path><path d="M445.75 563h0"></path><rect x="391.75" y="552" width="54" height="22" rx="10" ry="10"></rect><text x="418.75" y="567">expr</text></g></g><path d="M455.75 563h78.25"></path></g><path d="M534 563a10 10 0 0 0 10 -10v-512a10 10 0 0 1 10 -10"></path></g><path d="M 554 31 h 20 m 0 -10 v 20"></path></g><defs><style type="text/css"><![CDATA[
svg.railroad-diagram path { stroke-width: 2; stroke: darkgray; fill: rgba(0, 0, 0, 0);}/* All text except comments. */svg.railroad-diagram text { font: bold 12px Hack, "Source Code Pro", monospace; text-anchor: middle; fill: #404040;}/* Comment text */svg.railroad-diagram text.comment { font: italic 10px Hack, "Source Code Pro", monospace; fill: #404040;}/* The terminal boxes. */svg.railroad-diagram g.terminal rect { stroke-width: 2; stroke: #404040; fill: rgba(200, 200, 200, 1);}svg.railroad-diagram g.non-terminal rect { /* The non-terminal boxes. */ stroke-width: 2; stroke: #404040; fill: rgba(255, 255, 255, 1);}/* Multiple choice text, not working atm. */svg.railroad-diagram text.diagram-text { font-size: 12px Hack, "Source Code Pro", monospace; fill: red;}/* Multiple choice text, not working atm. */svg.railroad-diagram path.diagram-text { stroke-width: 1; stroke: red; fill: red; cursor: help;}
 ]]>
</style></defs></svg>