<?xml version="1.0" encoding="UTF-8" standalone="no"?>
<!DOCTYPE svg PUBLIC "-//W3C//DTD SVG 1.1//EN" "http://www.w3.org/Graphics/SVG/1.1/DTD/svg11.dtd">
<svg class="railroad-diagram" width="436" height="116" viewBox="0 0 436 116" id="LINE_COMMENT" xmlns="http://www.w3.org/2000/svg" xmlns:xlink="http://www.w3.org/1999/xlink"><g transform="translate(.5 .5)"><g><path d="M20 37v20m10 -20v20m-10 -10h20"></path></g><g><path d="M40 47h0"></path><path d="M396 47h0"></path><path d="M40 47h20"></path><g><path d="M60 47h0"></path><g><path d="M60 47h10"></path><path d="M366 47h10"></path><g><path d="M70 47h0"></path><path d="M184 47h0"></path><path d="M70 47h20"></path><g><path d="M90 47h0"></path><g><path d="M90 47h10"></path><path d="M154 47h10"></path><g class="terminal "><path d="M100 47h0"></path><path d="M154 47h0"></path><rect x="100" y="36" width="54" height="22"></rect><text x="127" y="51">'//'</text></g></g><path d="M164 47h0"></path></g><path d="M164 47h20"></path><path d="M70 47a10 10 0 0 1 10 10v18a10 10 0 0 0 10 10"></path><g><path d="M90 85h4.25"></path><g><path d="M94.25 85h10"></path><path d="M149.75 85h10"></path><g class="terminal "><path d="M104.25 85h0"></path><path d="M149.75 85h0"></path><rect x="104.25" y="74" width="45.5" height="22"></rect><text x="127" y="89">'#'</text></g></g><path d="M159.75 85h4.25"></path></g><path d="M164 85a10 10 0 0 0 10 -10v-18a10 10 0 0 1 10 -10"></path></g><g><path d="M184 47h0"></path><path d="M366 47h0"></path><path d="M184 47a10 10 0 0 0 10 -10v-7a10 10 0 0 1 10 -10"></path><g><path d="M204 20h142"></path></g><path d="M346 20a10 10 0 0 1 10 10v7a10 10 0 0 0 10 10"></path><path d="M184 47h20"></path><g><path d="M204 47h0"></path><path d="M346 47h0"></path><path d="M204 47h10"></path><g><path d="M214 47h0"></path><path d="M336 47h0"></path><g class="comment "><path d="M214 47h0"></path><path d="M245 47h0"></path><text x="229.5" y="52" class="comment">not</text></g><path d="M245 47h10"></path><path d="M255 47h10"></path><g class="terminal "><path d="M265 47h0"></path><path d="M336 47h0"></path><rect x="265" y="36" width="71" height="22"></rect><text x="300.5" y="51">[\r\n]</text></g></g><path d="M336 47h10"></path><path d="M214 47a10 10 0 0 0 -10 10v7a10 10 0 0 0 10 10"></path><g><path d="M214 74h122"></path></g><path d="M336 74a10 10 0 0 0 10 -10v-7a10 10 0 0 0 -10 -10"></path></g><path d="M346 47h20"></path></g></g><path d="M376 47h0"></path></g><path d="M376 47h20"></path></g><path d="M 396 47 h 20 m -10 -10 v 20 m 10 -20 v 20"></path></g><defs><style type="text/css"><![CDATA[
svg.railroad-diagram path { stroke-width: 2; stroke: darkgray; fill: rgba(0, 0, 0, 0);}/* All text except comments. */svg.railroad-diagram text { font: bold 12px Hack, "Source Code Pro", monospace; text-anchor: middle; fill: #404040;}/* Comment text */svg.railroad-diagram text.comment { font: italic 10px Hack, "Source Code Pro", monospace; fill: #404040;}/* The terminal boxes. */svg.railroad-diagram g.terminal rect { stroke-width: 2; stroke: #404040; fill: rgba(200, 200, 200, 1);}svg.railroad-diagram g.non-terminal rect { /* The non-terminal boxes. */ stroke-width: 2; stroke: #404040; fill: rgba(255, 255, 255, 1);}/* Multiple choice text, not working atm. */svg.railroad-diagram text.diagram-text { font-size: 12px Hack, "Source Code Pro", monospace; fill: red;}/* Multiple choice text, not working atm. */svg.railroad-diagram path.diagram-text { stroke-width: 1; stroke: red; fill: red; cursor: help;}
 ]]>
</style></defs></svg>