<?xml version="1.0" encoding="UTF-8" standalone="no"?>
<!DOCTYPE svg PUBLIC "-//W3C//DTD SVG 1.1//EN" "http://www.w3.org/Graphics/SVG/1.1/DTD/svg11.dtd">
<svg class="railroad-diagram" width="480.5" height="94" viewBox="0 0 480.5 94" id="NUMBER" xmlns="http://www.w3.org/2000/svg" xmlns:xlink="http://www.w3.org/1999/xlink"><g transform="translate(.5 .5)"><g><path d="M20 37v20m10 -20v20m-10 -10h20"></path></g><g><path d="M40 47h0"></path><path d="M440.5 47h0"></path><path d="M40 47h20"></path><g><path d="M60 47h0"></path><g><path d="M60 47h10"></path><path d="M410.5 47h10"></path><g><path d="M70 47h0"></path><path d="M152.5 47h0"></path><path d="M70 47h10"></path><g class="terminal "><path d="M80 47h0"></path><path d="M142.5 47h0"></path><rect x="80" y="36" width="62.5" height="22"></rect><text x="111.25" y="51">[0-9]</text></g><path d="M142.5 47h10"></path><path d="M80 47a10 10 0 0 0 -10 10v7a10 10 0 0 0 10 10"></path><g><path d="M80 74h62.5"></path></g><path d="M142.5 74a10 10 0 0 0 10 -10v-7a10 10 0 0 0 -10 -10"></path></g><path d="M152.5 47h10"></path><g><path d="M162.5 47h0"></path><path d="M410.5 47h0"></path><path d="M162.5 47a10 10 0 0 0 10 -10v-7a10 10 0 0 1 10 -10"></path><g><path d="M182.5 20h208"></path></g><path d="M390.5 20a10 10 0 0 1 10 10v7a10 10 0 0 0 10 10"></path><path d="M162.5 47h20"></path><g><path d="M182.5 47h0"></path><path d="M390.5 47h0"></path><path d="M182.5 47h20"></path><g><path d="M202.5 47h0"></path><g><path d="M202.5 47h10"></path><path d="M360.5 47h10"></path><g class="terminal "><path d="M212.5 47h0"></path><path d="M258 47h0"></path><rect x="212.5" y="36" width="45.5" height="22"></rect><text x="235.25" y="51">'.'</text></g><path d="M258 47h10"></path><path d="M268 47h10"></path><g><path d="M278 47h0"></path><path d="M360.5 47h0"></path><path d="M278 47h10"></path><g class="terminal "><path d="M288 47h0"></path><path d="M350.5 47h0"></path><rect x="288" y="36" width="62.5" height="22"></rect><text x="319.25" y="51">[0-9]</text></g><path d="M350.5 47h10"></path><path d="M288 47a10 10 0 0 0 -10 10v7a10 10 0 0 0 10 10"></path><g><path d="M288 74h62.5"></path></g><path d="M350.5 74a10 10 0 0 0 10 -10v-7a10 10 0 0 0 -10 -10"></path></g></g><path d="M370.5 47h0"></path></g><path d="M370.5 47h20"></path></g><path d="M390.5 47h20"></path></g></g><path d="M420.5 47h0"></path></g><path d="M420.5 47h20"></path></g><path d="M 440.5 47 h 20 m -10 -10 v 20 m 10 -20 v 20"></path></g><defs><style type="text/css"><![CDATA[
svg.railroad-diagram path { stroke-width: 2; stroke: darkgray; fill: rgba(0, 0, 0, 0);}/* All text except comments. */svg.railroad-diagram text { font: bold 12px Hack, "Source Code Pro", monospace; text-anchor: middle; fill: #404040;}/* Comment text */svg.railroad-diagram text.comment { font: italic 10px Hack, "Source Code Pro", monospace; fill: #404040;}/* The terminal boxes. */svg.railroad-diagram g.terminal rect { stroke-width: 2; stroke: #404040; fill: rgba(200, 200, 200, 1);}svg.railroad-diagram g.non-terminal rect { /* The non-terminal boxes. */ stroke-width: 2; stroke: #404040; fill: rgba(255, 255, 255, 1);}/* Multiple choice text, not working atm. */svg.railroad-diagram text.diagram-text { font-size: 12px Hack, "Source Code Pro", monospace; fill: red;}/* Multiple choice text, not working atm. */svg.railroad-diagram path.diagram-text { stroke-width: 1; stroke: red; fill: red; cursor: help;}
 ]]>
</style></defs></svg>