<?xml version="1.0" encoding="UTF-8" standalone="no"?>
<!DOCTYPE svg PUBLIC "-//W3C//DTD SVG 1.1//EN" "http://www.w3.org/Graphics/SVG/1.1/DTD/svg11.dtd">
<svg class="railroad-diagram" width="882.5" height="608" viewBox="0 0 882.5 608" id="statement" xmlns="http://www.w3.org/2000/svg" xmlns:xlink="http://www.w3.org/1999/xlink"><g transform="translate(.5 .5)"><g><path d="M20 37v20m0 -10h20"></path></g><g><path d="M40 47h0"></path><path d="M842.5 47h0"></path><path d="M40 47h20"></path><g><path d="M60 47h173.25"></path><g><path d="M233.25 47h10"></path><path d="M639.25 47h10"></path><g class="non-terminal "><path d="M243.25 47h0"></path><path d="M297.25 47h0"></path><rect x="243.25" y="36" width="54" height="22" rx="10" ry="10"></rect><text x="270.25" y="51">type</text></g><path d="M297.25 47h10"></path><path d="M307.25 47h10"></path><g class="terminal "><path d="M317.25 47h0"></path><path d="M354.25 47h0"></path><rect x="317.25" y="36" width="37" height="22"></rect><text x="335.75" y="51">ID</text></g><path d="M354.25 47h10"></path><g><path d="M364.25 47h0"></path><path d="M583.75 47h0"></path><path d="M364.25 47a10 10 0 0 0 10 -10v-7a10 10 0 0 1 10 -10"></path><g><path d="M384.25 20h179.5"></path></g><path d="M563.75 20a10 10 0 0 1 10 10v7a10 10 0 0 0 10 10"></path><path d="M364.25 47h20"></path><g><path d="M384.25 47h0"></path><path d="M563.75 47h0"></path><path d="M384.25 47h20"></path><g><path d="M404.25 47h0"></path><g><path d="M404.25 47h10"></path><path d="M533.75 47h10"></path><g class="terminal "><path d="M414.25 47h0"></path><path d="M459.75 47h0"></path><rect x="414.25" y="36" width="45.5" height="22"></rect><text x="437" y="51">'='</text></g><path d="M459.75 47h10"></path><path d="M469.75 47h10"></path><g class="non-terminal "><path d="M479.75 47h0"></path><path d="M533.75 47h0"></path><rect x="479.75" y="36" width="54" height="22" rx="10" ry="10"></rect><text x="506.75" y="51">expr</text></g></g><path d="M543.75 47h0"></path></g><path d="M543.75 47h20"></path></g><path d="M563.75 47h20"></path></g><path d="M583.75 47h10"></path><g class="terminal "><path d="M593.75 47h0"></path><path d="M639.25 47h0"></path><rect x="593.75" y="36" width="45.5" height="22"></rect><text x="616.5" y="51">';'</text></g></g><path d="M649.25 47h173.25"></path></g><path d="M822.5 47h20"></path><path d="M40 47a10 10 0 0 1 10 10v18a10 10 0 0 0 10 10"></path><g><path d="M60 85h278.75"></path><g><path d="M338.75 85h10"></path><path d="M533.75 85h10"></path><g class="terminal "><path d="M348.75 85h0"></path><path d="M411.25 85h0"></path><rect x="348.75" y="74" width="62.5" height="22"></rect><text x="380" y="89">'del'</text></g><path d="M411.25 85h10"></path><path d="M421.25 85h10"></path><g class="terminal "><path d="M431.25 85h0"></path><path d="M468.25 85h0"></path><rect x="431.25" y="74" width="37" height="22"></rect><text x="449.75" y="89">ID</text></g><path d="M468.25 85h10"></path><path d="M478.25 85h10"></path><g class="terminal "><path d="M488.25 85h0"></path><path d="M533.75 85h0"></path><rect x="488.25" y="74" width="45.5" height="22"></rect><text x="511" y="89">';'</text></g></g><path d="M543.75 85h278.75"></path></g><path d="M822.5 85a10 10 0 0 0 10 -10v-18a10 10 0 0 1 10 -10"></path><path d="M40 47a10 10 0 0 1 10 10v72a10 10 0 0 0 10 10"></path><g><path d="M60 139h76.5"></path><g><path d="M136.5 139h10"></path><path d="M736 139h10"></path><g class="terminal "><path d="M146.5 139h0"></path><path d="M226 139h0"></path><rect x="146.5" y="128" width="79.5" height="22"></rect><text x="186.25" y="143">'print'</text></g><path d="M226 139h10"></path><path d="M236 139h10"></path><g class="terminal "><path d="M246 139h0"></path><path d="M291.5 139h0"></path><rect x="246" y="128" width="45.5" height="22"></rect><text x="268.75" y="143">'('</text></g><path d="M291.5 139h10"></path><path d="M301.5 139h10"></path><g class="non-terminal "><path d="M311.5 139h0"></path><path d="M365.5 139h0"></path><rect x="311.5" y="128" width="54" height="22" rx="10" ry="10"></rect><text x="338.5" y="143">expr</text></g><path d="M365.5 139h10"></path><g><path d="M375.5 139h0"></path><path d="M615 139h0"></path><path d="M375.5 139a10 10 0 0 0 10 -10v-7a10 10 0 0 1 10 -10"></path><g><path d="M395.5 112h199.5"></path></g><path d="M595 112a10 10 0 0 1 10 10v7a10 10 0 0 0 10 10"></path><path d="M375.5 139h20"></path><g><path d="M395.5 139h0"></path><path d="M595 139h0"></path><path d="M395.5 139h10"></path><g><path d="M405.5 139h0"></path><path d="M585 139h0"></path><path d="M405.5 139h20"></path><g><path d="M425.5 139h0"></path><g><path d="M425.5 139h10"></path><path d="M555 139h10"></path><g class="terminal "><path d="M435.5 139h0"></path><path d="M481 139h0"></path><rect x="435.5" y="128" width="45.5" height="22"></rect><text x="458.25" y="143">','</text></g><path d="M481 139h10"></path><path d="M491 139h10"></path><g class="non-terminal "><path d="M501 139h0"></path><path d="M555 139h0"></path><rect x="501" y="128" width="54" height="22" rx="10" ry="10"></rect><text x="528" y="143">expr</text></g></g><path d="M565 139h0"></path></g><path d="M565 139h20"></path></g><path d="M585 139h10"></path><path d="M405.5 139a10 10 0 0 0 -10 10v7a10 10 0 0 0 10 10"></path><g><path d="M405.5 166h179.5"></path></g><path d="M585 166a10 10 0 0 0 10 -10v-7a10 10 0 0 0 -10 -10"></path></g><path d="M595 139h20"></path></g><path d="M615 139h10"></path><g class="terminal "><path d="M625 139h0"></path><path d="M670.5 139h0"></path><rect x="625" y="128" width="45.5" height="22"></rect><text x="647.75" y="143">')'</text></g><path d="M670.5 139h10"></path><path d="M680.5 139h10"></path><g class="terminal "><path d="M690.5 139h0"></path><path d="M736 139h0"></path><rect x="690.5" y="128" width="45.5" height="22"></rect><text x="713.25" y="143">';'</text></g></g><path d="M746 139h76.5"></path></g><path d="M822.5 139a10 10 0 0 0 10 -10v-72a10 10 0 0 1 10 -10"></path><path d="M40 47a10 10 0 0 1 10 10v142a10 10 0 0 0 10 10"></path><g><path d="M60 209h97.75"></path><g><path d="M157.75 209h10"></path><path d="M714.75 209h10"></path><g class="terminal "><path d="M167.75 209h0"></path><path d="M238.75 209h0"></path><rect x="167.75" y="198" width="71" height="22"></rect><text x="203.25" y="213">'scan'</text></g><path d="M238.75 209h10"></path><path d="M248.75 209h10"></path><g class="terminal "><path d="M258.75 209h0"></path><path d="M304.25 209h0"></path><rect x="258.75" y="198" width="45.5" height="22"></rect><text x="281.5" y="213">'('</text></g><path d="M304.25 209h10"></path><path d="M314.25 209h10"></path><g class="terminal "><path d="M324.25 209h0"></path><path d="M361.25 209h0"></path><rect x="324.25" y="198" width="37" height="22"></rect><text x="342.75" y="213">ID</text></g><path d="M361.25 209h10"></path><g><path d="M371.25 209h0"></path><path d="M593.75 209h0"></path><path d="M371.25 209a10 10 0 0 0 10 -10v-7a10 10 0 0 1 10 -10"></path><g><path d="M391.25 182h182.5"></path></g><path d="M573.75 182a10 10 0 0 1 10 10v7a10 10 0 0 0 10 10"></path><path d="M371.25 209h20"></path><g><path d="M391.25 209h0"></path><path d="M573.75 209h0"></path><path d="M391.25 209h10"></path><g><path d="M401.25 209h0"></path><path d="M563.75 209h0"></path><path d="M401.25 209h20"></path><g><path d="M421.25 209h0"></path><g><path d="M421.25 209h10"></path><path d="M533.75 209h10"></path><g class="terminal "><path d="M431.25 209h0"></path><path d="M476.75 209h0"></path><rect x="431.25" y="198" width="45.5" height="22"></rect><text x="454" y="213">','</text></g><path d="M476.75 209h10"></path><path d="M486.75 209h10"></path><g class="terminal "><path d="M496.75 209h0"></path><path d="M533.75 209h0"></path><rect x="496.75" y="198" width="37" height="22"></rect><text x="515.25" y="213">ID</text></g></g><path d="M543.75 209h0"></path></g><path d="M543.75 209h20"></path></g><path d="M563.75 209h10"></path><path d="M401.25 209a10 10 0 0 0 -10 10v7a10 10 0 0 0 10 10"></path><g><path d="M401.25 236h162.5"></path></g><path d="M563.75 236a10 10 0 0 0 10 -10v-7a10 10 0 0 0 -10 -10"></path></g><path d="M573.75 209h20"></path></g><path d="M593.75 209h10"></path><g class="terminal "><path d="M603.75 209h0"></path><path d="M649.25 209h0"></path><rect x="603.75" y="198" width="45.5" height="22"></rect><text x="626.5" y="213">')'</text></g><path d="M649.25 209h10"></path><path d="M659.25 209h10"></path><g class="terminal "><path d="M669.25 209h0"></path><path d="M714.75 209h0"></path><rect x="669.25" y="198" width="45.5" height="22"></rect><text x="692" y="213">';'</text></g></g><path d="M724.75 209h97.75"></path></g><path d="M822.5 209a10 10 0 0 0 10 -10v-142a10 10 0 0 1 10 -10"></path><path d="M40 47a10 10 0 0 1 10 10v212a10 10 0 0 0 10 10"></path><g><path d="M60 279h34.75"></path><g><path d="M94.75 279h10"></path><path d="M777.75 279h10"></path><g class="terminal "><path d="M104.75 279h0"></path><path d="M158.75 279h0"></path><rect x="104.75" y="268" width="54" height="22"></rect><text x="131.75" y="283">'if'</text></g><path d="M158.75 279h10"></path><path d="M168.75 279h10"></path><g class="terminal "><path d="M178.75 279h0"></path><path d="M224.25 279h0"></path><rect x="178.75" y="268" width="45.5" height="22"></rect><text x="201.5" y="283">'('</text></g><path d="M224.25 279h10"></path><path d="M234.25 279h10"></path><g class="non-terminal "><path d="M244.25 279h0"></path><path d="M298.25 279h0"></path><rect x="244.25" y="268" width="54" height="22" rx="10" ry="10"></rect><text x="271.25" y="283">expr</text></g><path d="M298.25 279h10"></path><path d="M308.25 279h10"></path><g class="terminal "><path d="M318.25 279h0"></path><path d="M363.75 279h0"></path><rect x="318.25" y="268" width="45.5" height="22"></rect><text x="341" y="283">')'</text></g><path d="M363.75 279h10"></path><path d="M373.75 279h10"></path><g class="non-terminal "><path d="M383.75 279h0"></path><path d="M480.25 279h0"></path><rect x="383.75" y="268" width="96.5" height="22" rx="10" ry="10"></rect><text x="432" y="283">statement</text></g><path d="M480.25 279h10"></path><g><path d="M490.25 279h0"></path><path d="M777.75 279h0"></path><path d="M490.25 279a10 10 0 0 0 10 -10v-7a10 10 0 0 1 10 -10"></path><g><path d="M510.25 252h247.5"></path></g><path d="M757.75 252a10 10 0 0 1 10 10v7a10 10 0 0 0 10 10"></path><path d="M490.25 279h20"></path><g><path d="M510.25 279h0"></path><path d="M757.75 279h0"></path><path d="M510.25 279h20"></path><g><path d="M530.25 279h0"></path><g><path d="M530.25 279h10"></path><path d="M727.75 279h10"></path><g class="terminal "><path d="M540.25 279h0"></path><path d="M611.25 279h0"></path><rect x="540.25" y="268" width="71" height="22"></rect><text x="575.75" y="283">'else'</text></g><path d="M611.25 279h10"></path><path d="M621.25 279h10"></path><g class="non-terminal "><path d="M631.25 279h0"></path><path d="M727.75 279h0"></path><rect x="631.25" y="268" width="96.5" height="22" rx="10" ry="10"></rect><text x="679.5" y="283">statement</text></g></g><path d="M737.75 279h0"></path></g><path d="M737.75 279h20"></path></g><path d="M757.75 279h20"></path></g></g><path d="M787.75 279h34.75"></path></g><path d="M822.5 279a10 10 0 0 0 10 -10v-212a10 10 0 0 1 10 -10"></path><path d="M40 47a10 10 0 0 1 10 10v250a10 10 0 0 0 10 10"></path><g><path d="M60 317h170.75"></path><g><path d="M230.75 317h10"></path><path d="M641.75 317h10"></path><g class="terminal "><path d="M240.75 317h0"></path><path d="M320.25 317h0"></path><rect x="240.75" y="306" width="79.5" height="22"></rect><text x="280.5" y="321">'while'</text></g><path d="M320.25 317h10"></path><path d="M330.25 317h10"></path><g class="terminal "><path d="M340.25 317h0"></path><path d="M385.75 317h0"></path><rect x="340.25" y="306" width="45.5" height="22"></rect><text x="363" y="321">'('</text></g><path d="M385.75 317h10"></path><path d="M395.75 317h10"></path><g class="non-terminal "><path d="M405.75 317h0"></path><path d="M459.75 317h0"></path><rect x="405.75" y="306" width="54" height="22" rx="10" ry="10"></rect><text x="432.75" y="321">expr</text></g><path d="M459.75 317h10"></path><path d="M469.75 317h10"></path><g class="terminal "><path d="M479.75 317h0"></path><path d="M525.25 317h0"></path><rect x="479.75" y="306" width="45.5" height="22"></rect><text x="502.5" y="321">')'</text></g><path d="M525.25 317h10"></path><path d="M535.25 317h10"></path><g class="non-terminal "><path d="M545.25 317h0"></path><path d="M641.75 317h0"></path><rect x="545.25" y="306" width="96.5" height="22" rx="10" ry="10"></rect><text x="593.5" y="321">statement</text></g></g><path d="M651.75 317h170.75"></path></g><path d="M822.5 317a10 10 0 0 0 10 -10v-250a10 10 0 0 1 10 -10"></path><path d="M40 47a10 10 0 0 1 10 10v288a10 10 0 0 0 10 10"></path><g><path d="M60 355h51.25"></path><g><path d="M111.25 355h10"></path><path d="M761.25 355h10"></path><g class="terminal "><path d="M121.25 355h0"></path><path d="M183.75 355h0"></path><rect x="121.25" y="344" width="62.5" height="22"></rect><text x="152.5" y="359">'for'</text></g><path d="M183.75 355h10"></path><path d="M193.75 355h10"></path><g class="terminal "><path d="M203.75 355h0"></path><path d="M249.25 355h0"></path><rect x="203.75" y="344" width="45.5" height="22"></rect><text x="226.5" y="359">'('</text></g><path d="M249.25 355h10"></path><path d="M259.25 355h10"></path><g class="non-terminal "><path d="M269.25 355h0"></path><path d="M365.75 355h0"></path><rect x="269.25" y="344" width="96.5" height="22" rx="10" ry="10"></rect><text x="317.5" y="359">statement</text></g><path d="M365.75 355h10"></path><path d="M375.75 355h10"></path><g class="non-terminal "><path d="M385.75 355h0"></path><path d="M439.75 355h0"></path><rect x="385.75" y="344" width="54" height="22" rx="10" ry="10"></rect><text x="412.75" y="359">expr</text></g><path d="M439.75 355h10"></path><path d="M449.75 355h10"></path><g class="terminal "><path d="M459.75 355h0"></path><path d="M505.25 355h0"></path><rect x="459.75" y="344" width="45.5" height="22"></rect><text x="482.5" y="359">';'</text></g><path d="M505.25 355h10"></path><path d="M515.25 355h10"></path><g class="non-terminal "><path d="M525.25 355h0"></path><path d="M579.25 355h0"></path><rect x="525.25" y="344" width="54" height="22" rx="10" ry="10"></rect><text x="552.25" y="359">expr</text></g><path d="M579.25 355h10"></path><path d="M589.25 355h10"></path><g class="terminal "><path d="M599.25 355h0"></path><path d="M644.75 355h0"></path><rect x="599.25" y="344" width="45.5" height="22"></rect><text x="622" y="359">')'</text></g><path d="M644.75 355h10"></path><path d="M654.75 355h10"></path><g class="non-terminal "><path d="M664.75 355h0"></path><path d="M761.25 355h0"></path><rect x="664.75" y="344" width="96.5" height="22" rx="10" ry="10"></rect><text x="713" y="359">statement</text></g></g><path d="M771.25 355h51.25"></path></g><path d="M822.5 355a10 10 0 0 0 10 -10v-288a10 10 0 0 1 10 -10"></path><path d="M40 47a10 10 0 0 1 10 10v342a10 10 0 0 0 10 10"></path><g><path d="M60 409h0"></path><g><path d="M60 409h10"></path><path d="M812.5 409h10"></path><g class="terminal "><path d="M70 409h0"></path><path d="M158 409h0"></path><rect x="70" y="398" width="88" height="22"></rect><text x="114" y="413">'switch'</text></g><path d="M158 409h10"></path><path d="M168 409h10"></path><g class="terminal "><path d="M178 409h0"></path><path d="M223.5 409h0"></path><rect x="178" y="398" width="45.5" height="22"></rect><text x="200.75" y="413">'('</text></g><path d="M223.5 409h10"></path><path d="M233.5 409h10"></path><g class="non-terminal "><path d="M243.5 409h0"></path><path d="M297.5 409h0"></path><rect x="243.5" y="398" width="54" height="22" rx="10" ry="10"></rect><text x="270.5" y="413">expr</text></g><path d="M297.5 409h10"></path><path d="M307.5 409h10"></path><g class="terminal "><path d="M317.5 409h0"></path><path d="M363 409h0"></path><rect x="317.5" y="398" width="45.5" height="22"></rect><text x="340.25" y="413">')'</text></g><path d="M363 409h10"></path><path d="M373 409h10"></path><g class="terminal "><path d="M383 409h0"></path><path d="M428.5 409h0"></path><rect x="383" y="398" width="45.5" height="22"></rect><text x="405.75" y="413">'{'</text></g><path d="M428.5 409h10"></path><g><path d="M438.5 409h0"></path><path d="M595 409h0"></path><path d="M438.5 409a10 10 0 0 0 10 -10v-7a10 10 0 0 1 10 -10"></path><g><path d="M458.5 382h116.5"></path></g><path d="M575 382a10 10 0 0 1 10 10v7a10 10 0 0 0 10 10"></path><path d="M438.5 409h20"></path><g><path d="M458.5 409h0"></path><path d="M575 409h0"></path><path d="M458.5 409h10"></path><g class="non-terminal "><path d="M468.5 409h0"></path><path d="M565 409h0"></path><rect x="468.5" y="398" width="96.5" height="22" rx="10" ry="10"></rect><text x="516.75" y="413">caseBlock</text></g><path d="M565 409h10"></path><path d="M468.5 409a10 10 0 0 0 -10 10v7a10 10 0 0 0 10 10"></path><g><path d="M468.5 436h96.5"></path></g><path d="M565 436a10 10 0 0 0 10 -10v-7a10 10 0 0 0 -10 -10"></path></g><path d="M575 409h20"></path></g><g><path d="M595 409h0"></path><path d="M757 409h0"></path><path d="M595 409a10 10 0 0 0 10 -10v-7a10 10 0 0 1 10 -10"></path><g><path d="M615 382h122"></path></g><path d="M737 382a10 10 0 0 1 10 10v7a10 10 0 0 0 10 10"></path><path d="M595 409h20"></path><g class="non-terminal "><path d="M615 409h0"></path><path d="M737 409h0"></path><rect x="615" y="398" width="122" height="22" rx="10" ry="10"></rect><text x="676" y="413">defaultBlock</text></g><path d="M737 409h20"></path></g><path d="M757 409h10"></path><g class="terminal "><path d="M767 409h0"></path><path d="M812.5 409h0"></path><rect x="767" y="398" width="45.5" height="22"></rect><text x="789.75" y="413">'}'</text></g></g><path d="M822.5 409h0"></path></g><path d="M822.5 409a10 10 0 0 0 10 -10v-342a10 10 0 0 1 10 -10"></path><path d="M40 47a10 10 0 0 1 10 10v396a10 10 0 0 0 10 10"></path><g><path d="M60 463h340"></path><g><path d="M400 463h10"></path><path d="M472.5 463h10"></path><g class="non-terminal "><path d="M410 463h0"></path><path d="M472.5 463h0"></path><rect x="410" y="452" width="62.5" height="22" rx="10" ry="10"></rect><text x="441.25" y="467">block</text></g></g><path d="M482.5 463h340"></path></g><path d="M822.5 463a10 10 0 0 0 10 -10v-396a10 10 0 0 1 10 -10"></path><path d="M40 47a10 10 0 0 1 10 10v434a10 10 0 0 0 10 10"></path><g><path d="M60 501h311.5"></path><g><path d="M371.5 501h10"></path><path d="M501 501h10"></path><g class="non-terminal "><path d="M381.5 501h0"></path><path d="M435.5 501h0"></path><rect x="381.5" y="490" width="54" height="22" rx="10" ry="10"></rect><text x="408.5" y="505">expr</text></g><path d="M435.5 501h10"></path><path d="M445.5 501h10"></path><g class="terminal "><path d="M455.5 501h0"></path><path d="M501 501h0"></path><rect x="455.5" y="490" width="45.5" height="22"></rect><text x="478.25" y="505">';'</text></g></g><path d="M511 501h311.5"></path></g><path d="M822.5 501a10 10 0 0 0 10 -10v-434a10 10 0 0 1 10 -10"></path><path d="M40 47a10 10 0 0 1 10 10v472a10 10 0 0 0 10 10"></path><g><path d="M60 539h298.75"></path><g><path d="M358.75 539h10"></path><path d="M513.75 539h10"></path><g class="terminal "><path d="M368.75 539h0"></path><path d="M448.25 539h0"></path><rect x="368.75" y="528" width="79.5" height="22"></rect><text x="408.5" y="543">'break'</text></g><path d="M448.25 539h10"></path><path d="M458.25 539h10"></path><g class="terminal "><path d="M468.25 539h0"></path><path d="M513.75 539h0"></path><rect x="468.25" y="528" width="45.5" height="22"></rect><text x="491" y="543">';'</text></g></g><path d="M523.75 539h298.75"></path></g><path d="M822.5 539a10 10 0 0 0 10 -10v-472a10 10 0 0 1 10 -10"></path><path d="M40 47a10 10 0 0 1 10 10v510a10 10 0 0 0 10 10"></path><g><path d="M60 577h348.5"></path><g><path d="M408.5 577h10"></path><path d="M464 577h10"></path><g class="terminal "><path d="M418.5 577h0"></path><path d="M464 577h0"></path><rect x="418.5" y="566" width="45.5" height="22"></rect><text x="441.25" y="581">';'</text></g></g><path d="M474 577h348.5"></path></g><path d="M822.5 577a10 10 0 0 0 10 -10v-510a10 10 0 0 1 10 -10"></path></g><path d="M 842.5 47 h 20 m 0 -10 v 20"></path></g><defs><style type="text/css"><![CDATA[
svg.railroad-diagram path { stroke-width: 2; stroke: darkgray; fill: rgba(0, 0, 0, 0);}/* All text except comments. */svg.railroad-diagram text { font: bold 12px Hack, "Source Code Pro", monospace; text-anchor: middle; fill: #404040;}/* Comment text */svg.railroad-diagram text.comment { font: italic 10px Hack, "Source Code Pro", monospace; fill: #404040;}/* The terminal boxes. */svg.railroad-diagram g.terminal rect { stroke-width: 2; stroke: #404040; fill: rgba(200, 200, 200, 1);}svg.railroad-diagram g.non-terminal rect { /* The non-terminal boxes. */ stroke-width: 2; stroke: #404040; fill: rgba(255, 255, 255, 1);}/* Multiple choice text, not working atm. */svg.railroad-diagram text.diagram-text { font-size: 12px Hack, "Source Code Pro", monospace; fill: red;}/* Multiple choice text, not working atm. */svg.railroad-diagram path.diagram-text { stroke-width: 1; stroke: red; fill: red; cursor: help;}
 ]]>
</style></defs></svg>